<svg xmlns="http://www.w3.org/2000/svg" viewBox="0 0 2030 817"><defs><style>.cls-1{fill:#000;}</style></defs><title>资源 4</title><g id="图层_2" data-name="图层 2"><g id="图层_1-2" data-name="图层 1"><path class="cls-1" d="M126.78,634c1-16.3,1.8-35.76,1.8-58.37H109.84c0,10-.26,23.93-.51,41.81Q105.87,731,0,797.81l11.29,16.82c57-37.6,93.42-84.92,108.82-142.24q27.33,89.13,106,142l12.06-16.56Q148.46,741.41,126.78,634Z"/><path class="cls-1" d="M652.11,689.22h84.44V593H652.11Zm18-79.41h48.5v62.58h-48.5Z"/><path class="cls-1" d="M908.24,575.89v88.35c0,17.09,7.7,25.76,23.35,25.76h42.35c9,0,15.65-2.1,19.76-6,4.62-4.74,7.95-17.88,9.75-39.44L986.26,639c-1,16.3-2.57,26-5.14,29.71-2,2.63-5.64,4.2-10.77,4.2H936.73c-6.93,0-10.27-4.2-10.27-12.62V627.43a747.37,747.37,0,0,0,74.68-14.73l-5.9-16.56c-17.71,4.73-40.55,9.46-68.78,13.93V575.89Z"/><path class="cls-1" d="M554.08,816.74h18.48V804.91h127v11.83h18.74V708.15H554.08ZM572.56,725h127V748.9h-127Zm0,40.5h127v22.61h-127Z"/><path class="cls-1" d="M581.28,675c17.45,10.51,31.31,20.51,42.09,30.5l13.09-13.41q-20-15.78-49.27-30.77c.51-2.36,1.28-4.73,2-7.36h52.1V636.63H593.09c1-7.89,1.79-16.57,2.31-25.51h38.75V594.3h-73.4q3.46-7.89,6.93-17.36L551,573.26c-8.47,21-18.73,37.34-31,48.91l11,14.2a125.12,125.12,0,0,0,20.79-25.25H578a199.6,199.6,0,0,1-2.83,25.51h-56.2V654H570.5l-2.56,6.31c-8.47,17.88-25.92,32.87-52.61,45l12.32,15.52C553.05,708.67,571,693.42,581.28,675Z"/><polygon class="cls-1" points="385.73 613.49 474.01 613.49 474.01 595.35 278.71 595.35 278.71 613.49 366.73 613.49 366.73 779.93 261.51 779.93 261.51 798.07 490.69 798.07 490.69 779.93 385.73 779.93 385.73 613.49"/><path class="cls-1" d="M1719,690a330,330,0,0,0,30.54-61l-16.94-8.15c-7.45,20-17.45,40-30,60.48Z"/><path class="cls-1" d="M1587,622.17l-17.19,8.67a485,485,0,0,1,27.72,60.22l17.19-8.68A618.92,618.92,0,0,0,1587,622.17Z"/><path class="cls-1" d="M1830.08,816.47h18.73V803.33h134v13.14h18.73V706.83H1830.08Zm18.73-91.5h134v60.22h-134Z"/><path class="cls-1" d="M1951.73,611.65a495.36,495.36,0,0,1,30,39.7c-44.14,4.21-90.85,7.63-140.12,9.73,23.1-19.46,46.45-46.27,69.55-79.93l-19-6.57q-50.06,75.33-83.92,87.29l3.59,17.88q100.08-3.94,181.18-11.31c6.16,10,12.58,20.25,19,31.29l18-8.94a668.36,668.36,0,0,0-61.59-87.29Z"/><polygon class="cls-1" points="1667.63 605.34 1763.1 605.34 1763.1 586.93 1555.73 586.93 1555.73 605.34 1648.64 605.34 1648.64 704.73 1545.47 704.73 1545.47 722.87 1648.64 722.87 1648.64 815.95 1667.63 815.95 1667.63 722.87 1772.85 722.87 1772.85 704.73 1667.63 704.73 1667.63 605.34"/><path class="cls-1" d="M1203.37,609.28h42.86v-18.4H1046.31v18.4H1093v60.48c0,2.63-.26,5.78-.26,9.2h-60.31V697.1h59.28c-2,21-5.64,38.92-11,54.17-8.21,20-22.84,36-43.63,48.11l10,16.31q33.87-18.15,48.5-51.28c7.7-17.88,12.58-40.22,14.89-67.31h74.17V813.58h18.73V697.1h56.2V679h-56.2ZM1184.64,679h-72.89c0-2.89.26-6.05.26-9.2V609.28h72.63Z"/><path class="cls-1" d="M1464.37,746.53c18.48-31.28,28.49-69.15,30-113.32h19V615.07h-75.71a351.32,351.32,0,0,0,8.47-37.6l-18.22-3.16c-7.19,44.44-20.79,79.94-40.81,106.23l11.3,13.93A206.33,206.33,0,0,0,1413,674c8.22,27.08,18.23,51,30.29,72-14.89,21.3-34.39,38.65-59,52.32l10.52,17.09c24.13-14.2,43.63-31.81,59-52.85,15.91,23.14,35.16,41.28,57.49,54.43l10.52-16C1499.79,788.34,1480.54,770.2,1464.37,746.53Zm-11-17.35c-12.07-21.3-22.07-46.27-29.77-75.2a215.13,215.13,0,0,0,8.46-20.77h44.66C1475.41,670,1467.71,702.1,1453.34,729.18Z"/><path class="cls-1" d="M982.15,791.5c-2,2.36-5.9,3.68-11,3.68h-34.9c-6.67,0-9.75-2.9-9.75-8.15v-37.6c26.69-2.37,51.58-6.84,74.68-13.68l-5.9-16.82c-20.28,6.31-43.12,10.78-68.78,13.41V700H908.24v91.23c0,13.94,7.44,21,22.84,21h43.63c9.24,0,15.91-2.11,20-6,4.87-4.73,8.21-17.62,9.75-38.91l-16.68-5.26C986.77,778.09,985,787.81,982.15,791.5Z"/><path class="cls-1" d="M851,603c6.16,8.94,12.06,17.88,17.45,26.3-24.12,3.15-47,5.26-68.52,6.57,14.37-13.41,27.2-31.81,39-55.22L821.5,575.1A228.25,228.25,0,0,1,782,631.9a22.82,22.82,0,0,1-8.47,5l5.14,15.78c38-2.11,70.83-5.26,98.29-9.73q5,8.67,9.24,17.35l15.14-11c-8.47-15.78-20.53-34.18-35.93-55.48Z"/><path class="cls-1" d="M789.16,816.74h17.71V766.52h59.28v21.29c0,6.58-3.34,10-9.75,10L837.15,797l4.62,17.88H862.3c14.37,0,21.56-7.89,21.56-23.14V668.18h-94.7Zm17.71-132h59.28v25.5H806.87Zm0,41.28h59.28v24.45H806.87Z"/><path class="cls-1" d="M1332.2,657.14V633h62.37V614.81h-38.5c-4.11-12.62-10-26.56-17.19-41.81l-18,5.26a310,310,0,0,1,16.43,36.55h-49V633H1315v24.19c-.51,66.78-11,115.42-32.08,145.66l14.37,12.89q28.48-41.82,33.88-126.21h32.33c-.25,52.06-1.28,83.35-3.08,93.34-1.79,8.68-7.44,13.15-16.68,13.15q-8.46,0-19.25-.79l4.11,16.3c8.47.52,14.37,1,17.71,1,18.22,0,28.49-7.62,31-22.61,2.31-14.73,3.59-53.9,3.59-117.8h-49C1332,667.39,1332.2,662.4,1332.2,657.14Z"/><path class="cls-1" d="M1120,0H0V473H1120Zm-10,463H10V10H1110Z"/><path class="cls-1" d="M1292.58,362H1297c38.73,0,56.12-14.78,56.12-52.69V72.67H1220V362h72.58Zm15.12-61.43c0,11.6-3.84,13.28-7.49,14.44a40.41,40.41,0,0,1-10.32,1h-25.22V240.22h43Zm-43-182.68h43V195h-43Z"/><path class="cls-1" d="M1330.72,431s102-9.24,101.36-129.5v-162H1610.2V92.72h-78.77V42h-46.31V92.72H1385V305.45c-.11,63.05-35.25,73.72-54.26,79.73Z"/><path class="cls-1" d="M1986.87,339v30c0,11.22-1.53,15.45-17.81,15.45h-11.49c-15.35,0-17-3.2-17-15.84V267.93H1922c2.83-14.73,4.35-31.52,4.75-52.18.39-13.7,1.18-82.71,1.18-82.71h-47.09v80.19c0,73.8-24.65,119-91.92,162.75v55l2.8-1.73c50.56-31.23,82.51-59.34,103-91.14v39.66c0,35.45,15.68,52.68,47.91,52.68h33.63c38.74,0,53.83-14.77,53.83-52.68V339Z"/><path class="cls-1" d="M1845.08,101.73h105.78c16.28,0,17.81,4.23,17.81,15.45V284.72h45.43V108.45c0-37.91-17.4-52.69-56.13-52.69h-35.75l-123,.08V285.38h45.91Z"/><path class="cls-1" d="M1782.58,134.51V92.92H1743V42.19h-46.31V92.92h-55.81v46.75h92.61c-2.64,44.67-64.63,98.82-90.5,105.35V299.3a151.91,151.91,0,0,0,55.27-24V430.85h46.33v-179l38.52,37V228.63l-22.32-22.08C1775.06,182.29,1782.58,157.47,1782.58,134.51Z"/><path class="cls-1" d="M316,210.92c10.77,0,23.41.21,32.89,6,9,5.44,12.32,14.61,12.32,30.55,0,0-18.36-1.24-26.31-1.24-21.22,0-44.27,3.94-62.7,15C252.8,272.78,242,293,242,315.48c0,33.66,23.37,60.76,56.13,67.68,32.32,6.81,67.53,3.9,99.48-3.55,1.79-.42,20.39-4.24,20.39-5.47v-123q0-45.11-24.07-65.62T327.11,165a219.47,219.47,0,0,0-69.9,11.88l11.52,42.65Q293.82,210.92,316,210.92Zm44,128c-3,.57-6.52,1.17-10.6,1.85-11.9,2-26.83,1.86-38.12-2.86-10-4.17-15.28-14.44-15.28-24.67q0-15.94,11.62-23.06c9.47-5.84,21-7.39,31.93-7.18,1.89,0,20.34.59,20.45,2.06Z"/><polygon class="cls-1" points="844.4 208 877.59 208 877.59 163.95 922 163.95 922 131.04 877.59 131.04 877.59 87 844.4 87 844.4 131.04 800 131.04 800 163.95 844.4 163.95 844.4 208"/><polygon class="cls-1" points="119.14 258.51 219.75 258.51 219.75 207.21 119.14 207.21 119.14 137.89 242 137.89 242 87 59 87 59 382 119.14 382 119.14 258.51"/><path class="cls-1" d="M609,376.18l-11.42-44.51c-24.67,8.68-61,14.26-80.89-7.36q-13.86-15.1-13.88-48.2c0-31.93,15.09-63.73,51.06-63.73a133.25,133.25,0,0,1,42.48,7L606.55,176c-31.83-12.12-73.11-16.28-105-2C461.65,191.84,444,234.41,444,276.11c0,28,7.13,57.35,25.93,78.83C502.74,392.44,565.65,393.53,609,376.18Z"/><polygon class="cls-1" points="984.4 208 1017.59 208 1017.59 163.95 1062 163.95 1062 131.04 1017.59 131.04 1017.59 87 984.4 87 984.4 131.04 940 131.04 940 163.95 984.4 163.95 984.4 208"/><path class="cls-1" d="M661.57,368.61C682.1,382,706.93,387,731.18,387q40.2,0,72.22-12.3l-11.51-44.31A162.93,162.93,0,0,1,764.21,338c-22.41,4.09-50,5.44-69.54-8.41q-15.61-11.1-17.23-35.72h136.2c6.07-33.44,1.06-73.47-22.37-99.7C773.79,174.6,748.5,165,722.56,165c-28.83,0-57.48,10.48-76.52,32.84-18.5,21.73-26,51.49-26,79.61C620,311.43,631.81,349.16,661.57,368.61ZM721.92,209c26.47.17,40.25,26.37,39,44H678C680.44,228,695.61,208.8,721.92,209Z"/></g></g></svg>